<?xml version="1.0" encoding="UTF-8"?>
<svg width="16px" height="16px" viewBox="0 0 16 16" version="1.1" xmlns="http://www.w3.org/2000/svg" xmlns:xlink="http://www.w3.org/1999/xlink">
    <title>文件夹</title>
    <g id="切图" stroke="none" stroke-width="1" fill="none" fill-rule="evenodd">
        <g id="画板" transform="translate(-70.000000, -71.000000)" fill-rule="nonzero">
            <g id="文件夹" transform="translate(70.000000, 71.000000)">
                <g id="文件夹" transform="translate(0.000000, 0.000000)">
                    <rect id="矩形" fill="#000000" opacity="0" x="0" y="-1.70530257e-13" width="16" height="16"></rect>
                    <path d="M5.70764786,3 C6.08940732,3 6.45673841,3.13772833 6.7344605,3.38503836 L6.74826185,3.39749361 L7.39352596,3.98704604 C7.51786365,4.10063735 7.68307725,4.16566361 7.85605418,4.16909207 L7.87046501,4.16921995 L10.6674402,4.16921995 C11.352307,4.16921995 11.9497201,4.60809463 12.1177336,5.23462916 L12.252009,5.73528133 L12.9091512,5.73529412 C13.5116163,5.73529412 14,6.19617647 14,6.76470588 C14,6.8714011 13.9824205,6.97744694 13.9478962,7.07904092 L12.1788849,12.2849233 C12.0340858,12.7109974 11.6142619,13 11.1401264,13 L3.099693,13 C2.49722799,13 2.00884424,12.5391176 2.00884424,11.9705882 C2.00884424,11.9590281 2.0090474,11.9474936 2.00946727,11.9359591 L2,11.9359591 L2,4.41176471 C2,3.63741688 2.62809029,3.0126087 3.44018962,3.00019182 L3.46485327,3 L5.70764786,3 Z M12.7294848,7 L5.17151395,7 C5.0603726,7 4.96053213,7.05800439 4.91980535,7.14627648 L4.91680151,7.15311037 L3.01577668,11.6915719 C3.00533707,11.7164938 3,11.7427635 3,11.7692308 C3,11.8944036 3.11682319,11.9962988 3.26250935,11.9998997 L3.27048912,12 L11.0236833,12 C11.1382145,12 11.2403395,11.938449 11.2786308,11.8463099 L11.2812429,11.839699 L12.9870704,7.30123746 C12.9956347,7.27846241 13,7.25468882 13,7.23076923 C13,7.10559644 12.8831768,7.00370123 12.7374906,7.00010034 L12.7295109,7 L12.7294848,7 Z M5.69336301,4 L3.60844233,4 C3.26883519,4 3.00532584,4.27905045 3.00008813,4.64566599 L3,4.65680308 L3,10 L4.14675484,6.69352867 C4.29094277,6.27776973 4.67318179,6.00026393 5.10166621,6.00026393 L11,6.00025095 L10.9219633,5.68249326 C10.8512669,5.39465515 10.6021612,5.19195481 10.3149563,5.18693144 L10.3040276,5.18684057 L7.70393599,5.18684057 C7.34904919,5.18685577 7.00757512,5.04703815 6.74940234,4.7960038 L6.73657248,4.78336099 L6.13674214,4.18493031 C6.02115678,4.06962839 5.86757283,4.00362288 5.70677203,4.00014278 L5.69336301,4 Z" id="形状" fill="#36CFC9"></path>
                </g>
            </g>
        </g>
    </g>
</svg>