<?xml version="1.0" encoding="UTF-8"?>
<svg width="61px" height="51px" viewBox="0 0 61 51" version="1.1" xmlns="http://www.w3.org/2000/svg" xmlns:xlink="http://www.w3.org/1999/xlink">
    <title>引导-添加主表</title>
    <g id="切图" stroke="none" stroke-width="1" fill="none" fill-rule="evenodd">
        <g id="引导-添加主表" fill-rule="nonzero">
            <g id="编组-2">
                <g id="表格备份">
                    <rect id="矩形" fill="#000000" opacity="0" x="0" y="0" width="47.7580645" height="47"></rect>
                    <polygon id="路径" fill="#D9D9D9" points="0 0 47.7580645 0 47.7580645 12 0 12"></polygon>
                    <polygon id="路径" fill="#D9D9D9" points="0 0 3.0483871 0 3.0483871 47 0 47"></polygon>
                    <path d="M0,44.0625 L47.7580645,44.0625 L47.7580645,47 L0,47 L0,44.0625 Z M0,0 L47.7580645,0 L47.7580645,2.9375 L0,2.9375 L0,0 Z" id="形状" fill="#D9D9D9"></path>
                    <path d="M44.7774194,0 L47.7580645,0 L47.7580645,47 L44.7774194,47 L44.7774194,0 Z M3.0483871,20.5625 L44.7774194,20.5625 L44.7774194,23.5 L3.0483871,23.5 L3.0483871,20.5625 Z" id="形状" fill="#D9D9D9"></path>
                    <path d="M14.2258065,12 L17.2741935,12 L17.2741935,44 L14.2258065,44 L14.2258065,12 Z M29.4677419,12 L32.516129,12 L32.516129,44 L29.4677419,44 L29.4677419,12 Z" id="形状" fill="#D9D9D9"></path>
                    <polygon id="路径" fill="#D9D9D9" points="3.0483871 32 44.7096774 32 44.7096774 35 3.0483871 35"></polygon>
                </g>
                <g id="添加" transform="translate(24.387097, 15.000000)">
                    <rect id="矩形" fill="#000000" opacity="0" x="0" y="0" width="35.6426799" height="35.0769231"></rect>
                    <path d="M18.2903226,2.76923077 C9.71876312,2.76923077 2.81389578,9.56449703 2.81389578,18 C2.81389578,26.435503 9.79812942,33.2307692 18.2903226,33.2307692 C26.861882,33.2307692 33.7667494,26.435503 33.7667494,18 C33.7667494,9.64260359 26.861882,2.76923077 18.2903226,2.76923077 Z" id="形状" stroke="#FFFFFF" stroke-width="3" fill="#D9D9D9"></path>
                    <path d="M26.9412483,19.1715976 L19.4808169,19.1715976 L19.4808169,26.5136095 C19.4808169,27.1384615 18.9252529,27.6852071 18.2903226,27.6852071 C17.6553923,27.6852071 17.0998282,27.1384615 17.0998282,26.5136095 L17.0998282,19.1715976 L9.63939681,19.1715976 C9.00446649,19.1715976 8.44890245,18.6248521 8.44890245,18 C8.44890245,17.375148 9.00446649,16.8284024 9.63939681,16.8284024 L17.0998282,16.8284024 L17.0998282,9.48639054 C17.0998282,8.86153848 17.6553923,8.31479292 18.2903226,8.31479292 C18.9252529,8.31479292 19.4808169,8.86153848 19.4808169,9.48639054 L19.4808169,16.8284024 L26.9412483,16.8284024 C27.5761786,16.8284024 28.1317427,17.3751479 28.1317427,18 C28.1317427,18.6248521 27.655545,19.1715976 26.9412483,19.1715976 Z" id="路径" fill="#FFFFFF"></path>
                </g>
            </g>
        </g>
    </g>
</svg>