<?xml version="1.0" encoding="UTF-8"?>
<svg width="14px" height="14px" viewBox="0 0 14 14" version="1.1" xmlns="http://www.w3.org/2000/svg" xmlns:xlink="http://www.w3.org/1999/xlink">
    <title>newly build_folder_icon</title>
    <g id="切图" stroke="none" stroke-width="1" fill="none" fill-rule="evenodd">
        <g id="画板" transform="translate(-63.000000, -14.000000)" fill="#000000" fill-rule="nonzero">
            <g id="newly-build_folder_icon" transform="translate(63.000000, 14.000000)">
                <rect id="矩形" opacity="0" x="0" y="0" width="14" height="14"></rect>
                <path d="M13.103125,3.89375 L6.475,3.89375 L5.228125,1.859375 C5.20625,1.8375 5.184375,1.815625 5.184375,1.79375 C5.009375,1.596875 4.790625,1.509375 4.528125,1.509375 L0.853125,1.509375 C0.7875,1.509375 0.2625,1.53125 0.2625,2.165625 L0.2625,11.921875 C0.2625,11.94375 0.328125,13.0375 0.984375,13.0375 L13.08125,13.0375 C13.7375,13.0375 13.803125,11.94375 13.803125,11.921875 L13.803125,4.615625 C13.825,4.221875 13.496875,3.89375 13.103125,3.89375 Z M12.884375,12.184375 L1.203125,12.184375 C1.18125,12.096875 1.159375,11.9875 1.1375,11.94375 L1.1375,2.40625 L4.50625,2.40625 L5.8625,4.571875 C5.95,4.703125 6.103125,4.76875 6.234375,4.76875 L12.95,4.76875 L12.95,11.94375 C12.95,11.9875 12.928125,12.096875 12.884375,12.184375 Z" id="形状" fill-opacity="0.65"></path>
                <path d="M13.0375,2.690625 L7.284375,2.690625 C7.04375,2.690625 6.846875,2.49375 6.846875,2.253125 C6.846875,2.0125 7.04375,1.815625 7.284375,1.815625 L13.059375,1.815625 C13.3,1.815625 13.496875,2.0125 13.496875,2.253125 C13.496875,2.49375 13.278125,2.690625 13.0375,2.690625 L13.0375,2.690625 Z" id="路径" fill-opacity="0.65"></path>
            </g>
        </g>
    </g>
</svg>